# xmcd CD database file
#
# Track frame offsets:
#	150
#	13473
#	27126
#	41053
#	55453
#	70847
#	87062
#	101333
#	113281
#	124966
#	139701
#	154375
#	168871
#	194338
#	208542
#	222396
#	234935
#	248225
#	261676
#	274965
#	288850
#	301779
#
# Disc length: 4196 seconds
#
# Revision: 2
# Processed by: cddbd v1.5.1PL0 Copyright (c) Steve Scherf et al.
# Submitted via: CDex 1.50
#
DISCID=3f106216
DTITLE=Duke Ellington - Classic Jazz Archive cd 1
DYEAR=1900
DGENRE=Jazz
TTITLE0=Hop Head
TTITLE1=Washington Wobble
TTITLE2=The Blues I Love To Sing
TTITLE3=Creole Love Call
TTITLE4=Black And Tan Fantasy
TTITLE5=East St. Louis Toodle-oo
TTITLE6=Black Beauty
TTITLE7=Take It Easy
TTITLE8=Jubilee Stomp
TTITLE9=The Mooche
TTITLE10=Hot And Bothered
TTITLE11=Misty Mornin'
TTITLE12=Tiger Rag
TTITLE13=Doin' The Voom Voom
TTITLE14=The Dicty Glide
TTITLE15=Saratoga Swing
TTITLE16=Cotton Club Stomp
TTITLE17=Wall Street Wail
TTITLE18=Ring Dem Bells
TTITLE19=Old Man Blues
TTITLE20=Mood Indigo
TTITLE21=Rockin' In Rhytm
EXTD=
EXTT0=
EXTT1=
EXTT2=
EXTT3=
EXTT4=
EXTT5=
EXTT6=
EXTT7=
EXTT8=
EXTT9=
EXTT10=
EXTT11=
EXTT12=
EXTT13=
EXTT14=
EXTT15=
EXTT16=
EXTT17=
EXTT18=
EXTT19=
EXTT20=
EXTT21=
PLAYORDER=
